<svg width="204" height="64" viewBox="0 0 204 64" fill="none" xmlns="http://www.w3.org/2000/svg">
<path d="M16.6764 43V20.28H22.9164V37.56H33.2204V43H16.6764ZM49.1939 43.192C47.4659 43.192 45.8979 42.872 44.4899 42.232C43.0819 41.5707 41.8659 40.696 40.8419 39.608C39.8392 38.4987 39.0605 37.2613 38.5059 35.896C37.9725 34.5093 37.7059 33.08 37.7059 31.608C37.7059 30.0933 37.9939 28.6533 38.5699 27.288C39.1459 25.9227 39.9459 24.7067 40.9699 23.64C42.0152 22.552 43.2419 21.6987 44.6499 21.08C46.0792 20.4613 47.6365 20.152 49.3219 20.152C51.0499 20.152 52.6179 20.4827 54.0259 21.144C55.4339 21.784 56.6392 22.6587 57.6419 23.768C58.6445 24.8773 59.4125 26.1253 59.9459 27.512C60.5005 28.8773 60.7779 30.2853 60.7779 31.736C60.7779 33.2293 60.4899 34.6587 59.9139 36.024C59.3592 37.3893 58.5592 38.616 57.5139 39.704C56.4899 40.7707 55.2739 41.624 53.8659 42.264C52.4579 42.8827 50.9005 43.192 49.1939 43.192ZM44.0419 31.672C44.0419 32.44 44.1485 33.1867 44.3619 33.912C44.5752 34.616 44.8952 35.256 45.3219 35.832C45.7485 36.3867 46.2819 36.8347 46.9219 37.176C47.5832 37.496 48.3619 37.656 49.2579 37.656C50.1539 37.656 50.9325 37.4853 51.5939 37.144C52.2552 36.8027 52.7885 36.344 53.1939 35.768C53.6205 35.1707 53.9299 34.52 54.1219 33.816C54.3352 33.0907 54.4419 32.3547 54.4419 31.608C54.4419 30.84 54.3352 30.104 54.1219 29.4C53.9085 28.696 53.5885 28.0667 53.1619 27.512C52.7352 26.936 52.1912 26.488 51.5299 26.168C50.8685 25.848 50.1005 25.688 49.2259 25.688C48.3299 25.688 47.5512 25.8587 46.8899 26.2C46.2499 26.5413 45.7165 27 45.2899 27.576C44.8632 28.1307 44.5432 28.7707 44.3299 29.496C44.1379 30.2 44.0419 30.9253 44.0419 31.672ZM77.0866 43.16C75.6146 43.16 74.2066 42.904 72.8626 42.392C71.54 41.8587 70.3666 41.0907 69.3426 40.088C68.3186 39.064 67.508 37.8373 66.9106 36.408C66.3346 34.9573 66.0466 33.304 66.0466 31.448C66.0466 29.848 66.3453 28.3653 66.9426 27C67.54 25.6347 68.3613 24.44 69.4066 23.416C70.4733 22.3707 71.7106 21.56 73.1186 20.984C74.5266 20.408 76.052 20.12 77.6946 20.12C79.7426 20.12 81.5986 20.568 83.2626 21.464C84.9266 22.3387 86.164 23.544 86.9746 25.08L82.3346 28.632C81.8866 27.736 81.2146 27.0213 80.3186 26.488C79.4226 25.9333 78.4733 25.656 77.4706 25.656C76.724 25.656 76.0413 25.8053 75.4226 26.104C74.804 26.4027 74.26 26.8187 73.7906 27.352C73.3426 27.8853 72.9906 28.5253 72.7346 29.272C72.5 29.9973 72.3826 30.7973 72.3826 31.672C72.3826 32.568 72.5106 33.3787 72.7666 34.104C73.0226 34.8293 73.3746 35.4587 73.8226 35.992C74.292 36.504 74.8466 36.9093 75.4866 37.208C76.1266 37.4853 76.8413 37.624 77.6306 37.624C78.6333 37.624 79.5933 37.3787 80.5106 36.888C81.428 36.376 82.26 35.6613 83.0066 34.744V40.824C81.3 42.3813 79.3266 43.16 77.0866 43.16ZM82.6866 35.384H78.4946V30.904H87.8386V43H82.6866V35.384ZM104.999 43.192C103.271 43.192 101.703 42.872 100.295 42.232C98.8869 41.5707 97.6709 40.696 96.6469 39.608C95.6442 38.4987 94.8655 37.2613 94.3109 35.896C93.7775 34.5093 93.5109 33.08 93.5109 31.608C93.5109 30.0933 93.7989 28.6533 94.3749 27.288C94.9509 25.9227 95.7509 24.7067 96.7749 23.64C97.8202 22.552 99.0469 21.6987 100.455 21.08C101.884 20.4613 103.442 20.152 105.127 20.152C106.855 20.152 108.423 20.4827 109.831 21.144C111.239 21.784 112.444 22.6587 113.447 23.768C114.45 24.8773 115.218 26.1253 115.751 27.512C116.306 28.8773 116.583 30.2853 116.583 31.736C116.583 33.2293 116.295 34.6587 115.719 36.024C115.164 37.3893 114.364 38.616 113.319 39.704C112.295 40.7707 111.079 41.624 109.671 42.264C108.263 42.8827 106.706 43.192 104.999 43.192ZM99.8469 31.672C99.8469 32.44 99.9535 33.1867 100.167 33.912C100.38 34.616 100.7 35.256 101.127 35.832C101.554 36.3867 102.087 36.8347 102.727 37.176C103.388 37.496 104.167 37.656 105.063 37.656C105.959 37.656 106.738 37.4853 107.399 37.144C108.06 36.8027 108.594 36.344 108.999 35.768C109.426 35.1707 109.735 34.52 109.927 33.816C110.14 33.0907 110.247 32.3547 110.247 31.608C110.247 30.84 110.14 30.104 109.927 29.4C109.714 28.696 109.394 28.0667 108.967 27.512C108.54 26.936 107.996 26.488 107.335 26.168C106.674 25.848 105.906 25.688 105.031 25.688C104.135 25.688 103.356 25.8587 102.695 26.2C102.055 26.5413 101.522 27 101.095 27.576C100.668 28.1307 100.348 28.7707 100.135 29.496C99.9429 30.2 99.8469 30.9253 99.8469 31.672Z" fill="url(#paint0_linear_36_14)"/>
<circle cx="189.778" cy="31.9999" r="14.2222" transform="rotate(-180 189.778 31.9999)" fill="#0052FF"/>
<circle cx="163.111" cy="32" r="8.88889" transform="rotate(-180 163.111 32)" fill="#0052FF" fill-opacity="0.75"/>
<circle cx="145.333" cy="32" r="5.33333" transform="rotate(-180 145.333 32)" fill="#0052FF" fill-opacity="0.5"/>
<defs>
<linearGradient id="paint0_linear_36_14" x1="0" y1="32" x2="132" y2="32" gradientUnits="userSpaceOnUse">
<stop stop-color="#00F9EF"/>
<stop offset="0.25" stop-color="#00E0FF"/>
<stop offset="0.5" stop-color="#00C4FF"/>
<stop offset="0.75" stop-color="#00C4FF"/>
<stop offset="1" stop-color="#007EFB"/>
</linearGradient>
</defs>
</svg>
